<svg width="24" height="24" viewBox="0 0 24 24" fill="none" xmlns="http://www.w3.org/2000/svg">
<path d="M11.4568 8.07054L3.49181 16.43C3.35884 16.5695 3.28467 16.7548 3.28467 16.9475C3.28467 17.1402 3.35884 17.3256 3.49181 17.465L3.50081 17.474C3.56527 17.5419 3.64286 17.5959 3.72886 17.6328C3.81486 17.6698 3.90747 17.6888 4.00106 17.6888C4.09465 17.6888 4.18726 17.6698 4.27326 17.6328C4.35926 17.5959 4.43685 17.5419 4.50131 17.474L12.0013 9.60204L19.4983 17.474C19.5628 17.5419 19.6404 17.5959 19.7264 17.6328C19.8124 17.6698 19.905 17.6888 19.9986 17.6888C20.0921 17.6888 20.1848 17.6698 20.2708 17.6328C20.3568 17.5959 20.4343 17.5419 20.4988 17.474L20.5078 17.465C20.6408 17.3256 20.715 17.1402 20.715 16.9475C20.715 16.7548 20.6408 16.5695 20.5078 16.43L12.5428 8.07054C12.4728 7.99702 12.3885 7.93849 12.2952 7.8985C12.2018 7.85851 12.1014 7.83789 11.9998 7.83789C11.8983 7.83789 11.7978 7.85851 11.7044 7.8985C11.6111 7.93849 11.5269 7.99702 11.4568 8.07054Z" fill="#79747E"/>
</svg>
