<svg width="17" height="16" viewBox="0 0 17 16" fill="none" xmlns="http://www.w3.org/2000/svg">
<g clip-path="url(#clip0_139_1828)">
<path d="M15.3512 0.0478115L0.295162 7.61581C0.220496 7.65848 0.159162 7.71448 0.111162 7.78381C0.0631623 7.85315 0.0364957 7.93048 0.0311623 8.01581C0.025829 8.10115 0.0444957 8.18115 0.0871623 8.25581C0.129829 8.33048 0.188496 8.38915 0.263162 8.43181L3.78316 10.6078V15.5358C3.78316 15.6425 3.8125 15.7358 3.87116 15.8158C3.92983 15.8958 4.00716 15.9518 4.10316 15.9838C4.19916 16.0158 4.29783 16.0158 4.39916 15.9838C4.5005 15.9518 4.57783 15.8931 4.63116 15.8078L7.04716 12.6078L12.4552 15.9358C12.5938 16.0211 12.7405 16.0291 12.8952 15.9598C13.0498 15.8905 13.1378 15.7758 13.1592 15.6158L16.0232 0.543812C16.0445 0.458478 16.0365 0.373145 15.9992 0.287811C15.9618 0.202478 15.9085 0.133145 15.8392 0.079812C15.7698 0.0264788 15.6898 -0.0028553 15.5992 -0.00818825C15.5085 -0.0135212 15.4258 0.00514412 15.3512 0.0478115ZM4.23116 9.77581L1.46316 8.07981L12.5032 2.52781L4.23116 9.77581ZM4.72716 14.1278V10.5918L12.4872 3.79181L4.72716 14.1278ZM12.3592 14.7838L7.60716 11.8558L14.7272 2.36781L12.3592 14.7838Z" fill="#003E5C"/>
</g>
<defs>
<clipPath id="clip0_139_1828">
<rect width="16" height="16" fill="white" transform="matrix(1 0 0 -1 0.0302734 16)"/>
</clipPath>
</defs>
</svg>
